{
  "accessors": [
    {
      "bufferView": 2,
      "componentType": 5126,
      "count": 175,
      "max": [
        0.8408728837966919,
        0.03999999910593033,
        0.9489312767982483
      ],
      "min": [
        0.00487293116748333,
        -0.009999997913837433,
        -1.0460000038146973
      ],
      "type": "VEC3"
    },
    {
      "bufferView": 2,
      "byteOffset": 2100,
      "componentType": 5126,
      "count": 175,
      "max": [
        1.0,
        1.0,
        1.0
      ],
      "min": [
        -1.0,
        -1.0,
        -1.0
      ],
      "type": "VEC3"
    },
    {
      "bufferView": 3,
      "componentType": 5126,
      "count": 175,
      "max": [
        1.0,
        1.0,
        0.996391773223877,
        1.0
      ],
      "min": [
        -1.0,
        -1.0,
        -0.999520480632782,
        -1.0
      ],
      "type": "VEC4"
    },
    {
      "bufferView": 1,
      "componentType": 5126,
      "count": 175,
      "max": [
        0.7859154939651489,
        0.9325000047683716
      ],
      "min": [
        0.22159624099731445,
        0.019375000149011612
      ],
      "type": "VEC2"
    },
    {
      "bufferView": 0,
      "componentType": 5125,
      "count": 294,
      "type": "SCALAR"
    },
    {
      "bufferView": 2,
      "byteOffset": 4200,
      "componentType": 5126,
      "count": 2258,
      "max": [
        0.03327120840549469,
        -0.0021787036675959826,
        0.03336150199174881
      ],
      "min": [
        -0.11056073009967804,
        -0.05870930477976799,
        -0.033262573182582855
      ],
      "type": "VEC3"
    },
    {
      "bufferView": 2,
      "byteOffset": 31296,
      "componentType": 5126,
      "count": 2258,
      "max": [
        0.999144434928894,
        0.9999953508377075,
        0.9991555213928223
      ],
      "min": [
        -0.9995319843292236,
        -0.9999752044677734,
        -0.9999575614929199
      ],
      "type": "VEC3"
    },
    {
      "bufferView": 0,
      "byteOffset": 1176,
      "componentType": 5125,
      "count": 13248,
      "type": "SCALAR"
    },
    {
      "bufferView": 2,
      "byteOffset": 58392,
      "componentType": 5126,
      "count": 2258,
      "max": [
        0.03327120840549469,
        0.05870930477976799,
        0.033262573182582855
      ],
      "min": [
        -0.11056073009967804,
        0.0021787025034427643,
        -0.03336150199174881
      ],
      "type": "VEC3"
    },
    {
      "bufferView": 2,
      "byteOffset": 85488,
      "componentType": 5126,
      "count": 2258,
      "max": [
        0.999144434928894,
        0.9999752044677734,
        0.9999575614929199
      ],
      "min": [
        -0.9995319843292236,
        -0.9999953508377075,
        -0.9991555213928223
      ],
      "type": "VEC3"
    },
    {
      "bufferView": 0,
      "byteOffset": 54168,
      "componentType": 5125,
      "count": 13248,
      "type": "SCALAR"
    },
    {
      "bufferView": 2,
      "byteOffset": 112584,
      "componentType": 5126,
      "count": 72,
      "max": [
        0.5,
        0.053333330899477005,
        2.0999999046325684
      ],
      "min": [
        -0.5,
        -0.026666665449738503,
        0.0
      ],
      "type": "VEC3"
    },
    {
      "bufferView": 2,
      "byteOffset": 113448,
      "componentType": 5126,
      "count": 72,
      "max": [
        1.0,
        1.0,
        0.0
      ],
      "min": [
        -1.0,
        -1.0,
        -1.0
      ],
      "type": "VEC3"
    },
    {
      "bufferView": 3,
      "byteOffset": 2800,
      "componentType": 5126,
      "count": 72,
      "max": [
        1.0,
        1.0,
        0.7071065902709961,
        1.0
      ],
      "min": [
        -1.0,
        -1.0,
        -0.7071067690849304,
        -1.0
      ],
      "type": "VEC4"
    },
    {
      "bufferView": 1,
      "byteOffset": 1400,
      "componentType": 5126,
      "count": 72,
      "max": [
        0.7924882769584656,
        0.9393749833106995
      ],
      "min": [
        0.21408450603485107,
        0.014999999664723873
      ],
      "type": "VEC2"
    },
    {
      "bufferView": 0,
      "byteOffset": 107160,
      "componentType": 5125,
      "count": 108,
      "type": "SCALAR"
    },
    {
      "bufferView": 4,
      "componentType": 5126,
      "count": 2,
      "max": [
        1.0,
        0.0,
        0.0,
        0.0,
        0.0,
        1.0,
        0.0,
        0.0,
        0.0,
        0.0,
        1.0,
        0.0,
        0.0,
        0.0,
        0.0,
        1.0
      ],
      "min": [
        1.0,
        0.0,
        0.0,
        0.0,
        0.0,
        1.0,
        0.0,
        0.0,
        0.0,
        0.0,
        1.0,
        0.0,
        0.0,
        0.0,
        0.0,
        1.0
      ],
      "type": "MAT4"
    },
    {
      "bufferView": 5,
      "componentType": 5126,
      "count": 74,
      "max": [
        2.4583332538604736
      ],
      "min": [
        0.0
      ],
      "type": "SCALAR"
    },
    {
      "bufferView": 6,
      "componentType": 5126,
      "count": 74,
      "max": [
        5.551115123125783e-17,
        1.1102230246251565e-16,
        -1.019582986831665
      ],
      "min": [
        -5.551115123125783e-17,
        -5.551115123125783e-17,
        -1.019582986831665
      ],
      "type": "VEC3"
    },
    {
      "bufferView": 5,
      "byteOffset": 296,
      "componentType": 5126,
      "count": 73,
      "max": [
        2.4583332538604736
      ],
      "min": [
        0.0
      ],
      "type": "SCALAR"
    },
    {
      "bufferView": 7,
      "componentType": 5126,
      "count": 73,
      "max": [
        0.7071068286895752,
        3.925231741276458e-17,
        3.925231410404213e-17,
        0.7071067094802856
      ],
      "min": [
        0.7071068286895752,
        -5.887846453861829e-17,
        -5.88784711560632e-17,
        0.7071067094802856
      ],
      "type": "VEC4"
    },
    {
      "bufferView": 5,
      "byteOffset": 588,
      "componentType": 5126,
      "count": 118,
      "max": [
        2.4583332538604736
      ],
      "min": [
        0.0
      ],
      "type": "SCALAR"
    },
    {
      "bufferView": 7,
      "byteOffset": 1168,
      "componentType": 5126,
      "count": 118,
      "max": [
        -0.5416752099990845,
        0.45451948046684265,
        0.4545195400714874,
        0.7071067094802856
      ],
      "min": [
        -0.7071068286895752,
        0.0,
        0.0,
        0.5416751503944397
      ],
      "type": "VEC4"
    }
  ],
  "animations": [
    {
      "channels": [
        {
          "sampler": 0,
          "target": {
            "node": 7,
            "path": "translation"
          }
        },
        {
          "sampler": 1,
          "target": {
            "node": 7,
            "path": "rotation"
          }
        },
        {
          "sampler": 2,
          "target": {
            "node": 4,
            "path": "rotation"
          }
        }
      ],
      "name": "close /open",
      "samplers": [
        {
          "input": 17,
          "interpolation": "LINEAR",
          "output": 18
        },
        {
          "input": 19,
          "interpolation": "LINEAR",
          "output": 20
        },
        {
          "input": 21,
          "interpolation": "LINEAR",
          "output": 22
        }
      ]
    }
  ],
  "asset": {
    "extras": {
      "author": "DiggenDigga (https://sketchfab.com/diggendigga)",
      "license": "CC-BY-4.0 (http://creativecommons.org/licenses/by/4.0/)",
      "source": "https://sketchfab.com/3d-models/door-wood-afed9756ba974d1395a336124ff326fd",
      "title": "Door (wood)"
    },
    "generator": "Sketchfab-12.66.0",
    "version": "2.0"
  },
  "bufferViews": [
    {
      "buffer": 0,
      "byteLength": 107592,
      "name": "floatBufferViews",
      "target": 34963
    },
    {
      "buffer": 0,
      "byteLength": 1976,
      "byteOffset": 107592,
      "byteStride": 8,
      "name": "floatBufferViews",
      "target": 34962
    },
    {
      "buffer": 0,
      "byteLength": 114312,
      "byteOffset": 109568,
      "byteStride": 12,
      "name": "floatBufferViews",
      "target": 34962
    },
    {
      "buffer": 0,
      "byteLength": 3952,
      "byteOffset": 223880,
      "byteStride": 16,
      "name": "floatBufferViews",
      "target": 34962
    },
    {
      "buffer": 0,
      "byteLength": 128,
      "byteOffset": 227832,
      "name": "floatBufferViews"
    },
    {
      "buffer": 0,
      "byteLength": 1060,
      "byteOffset": 227960,
      "name": "floatBufferViews"
    },
    {
      "buffer": 0,
      "byteLength": 888,
      "byteOffset": 229020,
      "byteStride": 12,
      "name": "floatBufferViews"
    },
    {
      "buffer": 0,
      "byteLength": 3056,
      "byteOffset": 229908,
      "byteStride": 16,
      "name": "floatBufferViews"
    }
  ],
  "buffers": [
    {
      "byteLength": 232964,
      "uri": "scene.bin"
    }
  ],
  "images": [
    {
      "uri": "textures/MAT_Door_baseColor.png"
    },
    {
      "uri": "textures/MAT_Door_metallicRoughness.png"
    },
    {
      "uri": "textures/MAT_Door_normal.png"
    }
  ],
  "materials": [
    {
      "doubleSided": true,
      "name": "MAT_Door",
      "normalTexture": {
        "index": 2
      },
      "occlusionTexture": {
        "index": 1
      },
      "pbrMetallicRoughness": {
        "baseColorTexture": {
          "index": 0
        },
        "metallicFactor": 0.0,
        "metallicRoughnessTexture": {
          "index": 1
        }
      }
    },
    {
      "doubleSided": true,
      "name": "MAT_Handle",
      "pbrMetallicRoughness": {
        "baseColorFactor": [
          0.2618891781927143,
          0.2618891781927143,
          0.2618891781927143,
          1.0
        ],
        "roughnessFactor": 0.23342225609756098
      }
    }
  ],
  "meshes": [
    {
      "name": "Door_MAT_Door_0",
      "primitives": [
        {
          "attributes": {
            "NORMAL": 1,
            "POSITION": 0,
            "TANGENT": 2,
            "TEXCOORD_0": 3
          },
          "indices": 4,
          "material": 0,
          "mode": 4
        }
      ]
    },
    {
      "name": "Handle_Back_MAT_Handle_0",
      "primitives": [
        {
          "attributes": {
            "NORMAL": 6,
            "POSITION": 5
          },
          "indices": 7,
          "material": 1,
          "mode": 4
        }
      ]
    },
    {
      "name": "Handle_Front_MAT_Handle_0",
      "primitives": [
        {
          "attributes": {
            "NORMAL": 9,
            "POSITION": 8
          },
          "indices": 10,
          "material": 1,
          "mode": 4
        }
      ]
    },
    {
      "name": "DoorFrame_MAT_Door_0",
      "primitives": [
        {
          "attributes": {
            "NORMAL": 12,
            "POSITION": 11,
            "TANGENT": 13,
            "TEXCOORD_0": 14
          },
          "indices": 15,
          "material": 0,
          "mode": 4
        }
      ]
    }
  ],
  "nodes": [
    {
      "children": [
        1
      ],
      "matrix": [
        0.014308571815490723,
        0.0,
        0.0,
        0.0,
        0.0,
        5.478134979682673e-18,
        -0.014308571815490723,
        0.0,
        0.0,
        0.014308571815490723,
        5.478134979682673e-18,
        0.0,
        0.0,
        3.747089299799806e-30,
        -1.687538997430238e-14,
        1.0
      ],
      "name": "Sketchfab_model"
    },
    {
      "children": [
        2
      ],
      "matrix": [
        1.0,
        0.0,
        0.0,
        0.0,
        0.0,
        0.0,
        1.0,
        0.0,
        0.0,
        -1.0,
        0.0,
        0.0,
        0.0,
        0.0,
        0.0,
        1.0
      ],
      "name": "woodenDoor_01_v1_ANIM.fbx"
    },
    {
      "children": [
        3
      ],
      "name": "Object_2"
    },
    {
      "children": [
        4,
        14
      ],
      "name": "RootNode"
    },
    {
      "children": [
        5
      ],
      "name": "DoorBone",
      "rotation": [
        -0.7071068286895752,
        0.0,
        0.0,
        0.7071067094802856
      ],
      "scale": [
        100.0,
        100.0,
        100.0
      ],
      "translation": [
        -39.98480987548828,
        99.50172424316406,
        0.6000000834465027
      ]
    },
    {
      "children": [
        6,
        8
      ],
      "name": "Object_5"
    },
    {
      "children": [
        7
      ],
      "name": "_rootJoint"
    },
    {
      "name": "Bone_00",
      "rotation": [
        0.7071068286895752,
        0.0,
        0.0,
        0.7071067094802856
      ],
      "translation": [
        0.0,
        0.0,
        -1.019582986831665
      ]
    },
    {
      "children": [
        9,
        10,
        12
      ],
      "name": "Door",
      "rotation": [
        -1.3234889800848443e-23,
        -0.0,
        0.0,
        1.0
      ],
      "translation": [
        -0.018151909112930298,
        -0.019999997690320015,
        0.05498272180557251
      ]
    },
    {
      "mesh": 0,
      "name": "Door_MAT_Door_0"
    },
    {
      "children": [
        11
      ],
      "name": "Handle_Back",
      "rotation": [
        -1.3234889800848443e-23,
        -0.0,
        0.0,
        1.0
      ],
      "translation": [
        0.7799369692802429,
        0.008200015872716904,
        0.0
      ]
    },
    {
      "mesh": 1,
      "name": "Handle_Back_MAT_Handle_0"
    },
    {
      "children": [
        13
      ],
      "name": "Handle_Front",
      "rotation": [
        -1.3234889800848443e-23,
        -0.0,
        0.0,
        1.0
      ],
      "translation": [
        0.7799369692802429,
        0.021449977532029152,
        2.220446049250313e-16
      ]
    },
    {
      "mesh": 2,
      "name": "Handle_Front_MAT_Handle_0"
    },
    {
      "children": [
        15
      ],
      "name": "DoorFrame",
      "rotation": [
        -0.7071068286895752,
        0.0,
        0.0,
        0.7071067094802856
      ],
      "scale": [
        100.0,
        100.0,
        100.0
      ]
    },
    {
      "mesh": 3,
      "name": "DoorFrame_MAT_Door_0"
    }
  ],
  "samplers": [
    {
      "magFilter": 9729,
      "minFilter": 9987,
      "wrapS": 10497,
      "wrapT": 10497
    }
  ],
  "scene": 0,
  "scenes": [
    {
      "name": "Sketchfab_Scene",
      "nodes": [
        0
      ]
    }
  ],
  "skins": [
    {
      "inverseBindMatrices": 16,
      "joints": [
        6,
        7
      ],
      "skeleton": 6
    }
  ],
  "textures": [
    {
      "sampler": 0,
      "source": 0
    },
    {
      "sampler": 0,
      "source": 1
    },
    {
      "sampler": 0,
      "source": 2
    }
  ]
}
