{
  "accessors": [
    {
      "bufferView": 2,
      "componentType": 5126,
      "count": 2289,
      "max": [
        0.8389964699745178,
        0.8389959931373596,
        2.7211875915527344
      ],
      "min": [
        -0.838995635509491,
        -0.8389959931373596,
        -0.0640367940068245
      ],
      "type": "VEC3"
    },
    {
      "bufferView": 2,
      "byteOffset": 27468,
      "componentType": 5126,
      "count": 2289,
      "max": [
        1.0,
        1.0,
        1.0
      ],
      "min": [
        -1.0,
        -1.0,
        -1.0
      ],
      "type": "VEC3"
    },
    {
      "bufferView": 1,
      "componentType": 5126,
      "count": 2289,
      "max": [
        1.0000289678573608,
        1.0
      ],
      "min": [
        -2.891865369747393e-05,
        0.01000000536441803
      ],
      "type": "VEC2"
    },
    {
      "bufferView": 0,
      "componentType": 5125,
      "count": 9018,
      "type": "SCALAR"
    },
    {
      "bufferView": 2,
      "byteOffset": 54936,
      "componentType": 5126,
      "count": 88,
      "max": [
        1.0311561822891235,
        1.0311561822891235,
        1.326774001121521
      ],
      "min": [
        -1.0311561822891235,
        -1.0311561822891235,
        -1.6432286500930786
      ],
      "type": "VEC3"
    },
    {
      "bufferView": 2,
      "byteOffset": 55992,
      "componentType": 5126,
      "count": 88,
      "max": [
        1.0,
        1.0,
        1.0
      ],
      "min": [
        -1.0,
        -1.0,
        -1.0
      ],
      "type": "VEC3"
    },
    {
      "bufferView": 1,
      "byteOffset": 18312,
      "componentType": 5126,
      "count": 88,
      "max": [
        0.875,
        1.0
      ],
      "min": [
        0.125,
        0.0
      ],
      "type": "VEC2"
    },
    {
      "bufferView": 0,
      "byteOffset": 36072,
      "componentType": 5125,
      "count": 156,
      "type": "SCALAR"
    },
    {
      "bufferView": 2,
      "byteOffset": 57048,
      "componentType": 5126,
      "count": 140,
      "max": [
        0.5435746908187866,
        0.009656621143221855,
        0.24262556433677673
      ],
      "min": [
        -0.5435746908187866,
        -0.009656621143221855,
        -0.24262556433677673
      ],
      "type": "VEC3"
    },
    {
      "bufferView": 2,
      "byteOffset": 58728,
      "componentType": 5126,
      "count": 140,
      "max": [
        1.0,
        1.8541447843745118e-06,
        1.0
      ],
      "min": [
        -1.0,
        -1.0,
        -1.0
      ],
      "type": "VEC3"
    },
    {
      "bufferView": 1,
      "byteOffset": 19016,
      "componentType": 5126,
      "count": 140,
      "max": [
        0.875,
        1.0
      ],
      "min": [
        0.125,
        0.0
      ],
      "type": "VEC2"
    },
    {
      "bufferView": 0,
      "byteOffset": 36696,
      "componentType": 5125,
      "count": 246,
      "type": "SCALAR"
    },
    {
      "bufferView": 2,
      "byteOffset": 60408,
      "componentType": 5126,
      "count": 1704,
      "max": [
        30.26081085205078,
        4.561882495880127,
        23.086822509765625
      ],
      "min": [
        -65.36225128173828,
        -4.561862945556641,
        -80.14273834228516
      ],
      "type": "VEC3"
    },
    {
      "bufferView": 2,
      "byteOffset": 80856,
      "componentType": 5126,
      "count": 1704,
      "max": [
        0.9998080730438232,
        0.9999963045120239,
        0.9999985694885254
      ],
      "min": [
        -0.9999830722808838,
        -0.9999963045120239,
        -0.9999862909317017
      ],
      "type": "VEC3"
    },
    {
      "bufferView": 1,
      "byteOffset": 20136,
      "componentType": 5126,
      "count": 1704,
      "max": [
        0.8750001192092896,
        1.0000001192092896
      ],
      "min": [
        0.125,
        0.0
      ],
      "type": "VEC2"
    },
    {
      "bufferView": 0,
      "byteOffset": 37680,
      "componentType": 5125,
      "count": 6816,
      "type": "SCALAR"
    }
  ],
  "asset": {
    "extras": {
      "author": "assetfactory (https://sketchfab.com/assetfactory)",
      "license": "SKETCHFAB Standard (https://sketchfab.com/licenses)",
      "source": "https://sketchfab.com/3d-models/trophy-for-champions-81f4f45074314634b25862f7b5ff4e8c",
      "title": "Trophy for champions"
    },
    "generator": "Sketchfab-16.33.0",
    "version": "2.0"
  },
  "bufferViews": [
    {
      "buffer": 0,
      "byteLength": 64944,
      "name": "floatBufferViews",
      "target": 34963
    },
    {
      "buffer": 0,
      "byteLength": 33768,
      "byteOffset": 64944,
      "byteStride": 8,
      "name": "floatBufferViews",
      "target": 34962
    },
    {
      "buffer": 0,
      "byteLength": 101304,
      "byteOffset": 98712,
      "byteStride": 12,
      "name": "floatBufferViews",
      "target": 34962
    }
  ],
  "buffers": [
    {
      "byteLength": 200016,
      "uri": "scene.bin"
    }
  ],
  "materials": [
    {
      "doubleSided": true,
      "name": "Gold",
      "pbrMetallicRoughness": {
        "baseColorFactor": [
          0.8,
          0.361304,
          0.147277,
          1.0
        ],
        "roughnessFactor": 0.12111357740757307
      }
    },
    {
      "doubleSided": true,
      "name": "BlackBase",
      "pbrMetallicRoughness": {
        "baseColorFactor": [
          0.00489556,
          0.00489556,
          0.00489556,
          1.0
        ],
        "metallicFactor": 0.0,
        "roughnessFactor": 0.1085521047005129
      }
    }
  ],
  "meshes": [
    {
      "name": "Cylinder_Gold_0",
      "primitives": [
        {
          "attributes": {
            "NORMAL": 1,
            "POSITION": 0,
            "TEXCOORD_0": 2
          },
          "indices": 3,
          "material": 0,
          "mode": 4
        }
      ]
    },
    {
      "name": "Cube_BlackBase_0",
      "primitives": [
        {
          "attributes": {
            "NORMAL": 5,
            "POSITION": 4,
            "TEXCOORD_0": 6
          },
          "indices": 7,
          "material": 1,
          "mode": 4
        }
      ]
    },
    {
      "name": "Cube.001_Gold_0",
      "primitives": [
        {
          "attributes": {
            "NORMAL": 9,
            "POSITION": 8,
            "TEXCOORD_0": 10
          },
          "indices": 11,
          "material": 0,
          "mode": 4
        }
      ]
    },
    {
      "name": "Cube.002_Gold_0",
      "primitives": [
        {
          "attributes": {
            "NORMAL": 13,
            "POSITION": 12,
            "TEXCOORD_0": 14
          },
          "indices": 15,
          "material": 0,
          "mode": 4
        }
      ]
    }
  ],
  "nodes": [
    {
      "children": [
        1
      ],
      "matrix": [
        1.0,
        0.0,
        0.0,
        0.0,
        0.0,
        2.220446049250313e-16,
        -1.0,
        0.0,
        0.0,
        1.0,
        2.220446049250313e-16,
        0.0,
        0.0,
        0.0,
        0.0,
        1.0
      ],
      "name": "Sketchfab_model"
    },
    {
      "children": [
        2
      ],
      "matrix": [
        1.0,
        0.0,
        0.0,
        0.0,
        0.0,
        0.0,
        1.0,
        0.0,
        0.0,
        -1.0,
        0.0,
        0.0,
        0.0,
        0.0,
        0.0,
        1.0
      ],
      "name": "Trophy.fbx"
    },
    {
      "children": [
        3,
        5,
        7,
        9
      ],
      "name": "RootNode"
    },
    {
      "children": [
        4
      ],
      "matrix": [
        100.0,
        0.0,
        0.0,
        0.0,
        0.0,
        -1.629206793918314e-05,
        -99.99999999999868,
        0.0,
        0.0,
        99.99999999999868,
        -1.629206793918314e-05,
        0.0,
        0.0,
        101.60938262939453,
        0.0,
        1.0
      ],
      "name": "Cylinder"
    },
    {
      "mesh": 0,
      "name": "Cylinder_Gold_0"
    },
    {
      "children": [
        6
      ],
      "matrix": [
        79.19668579101563,
        0.0,
        0.0,
        0.0,
        0.0,
        -1.2902777854653667e-05,
        -79.19668579101457,
        0.0,
        0.0,
        31.949211120605046,
        -5.205187181802098e-06,
        0.0,
        0.0,
        52.478271484375,
        0.0,
        1.0
      ],
      "name": "Cube"
    },
    {
      "mesh": 1,
      "name": "Cube_BlackBase_0"
    },
    {
      "children": [
        8
      ],
      "matrix": [
        100.0,
        0.0,
        0.0,
        0.0,
        0.0,
        -1.629206793918314e-05,
        -99.99999999999868,
        0.0,
        0.0,
        99.99999999999868,
        -1.629206793918314e-05,
        0.0,
        0.0,
        51.753849029541016,
        79.58091735839844,
        1.0
      ],
      "name": "Cube.001"
    },
    {
      "mesh": 2,
      "name": "Cube.001_Gold_0"
    },
    {
      "children": [
        10
      ],
      "matrix": [
        1.6475831397004062,
        -2.064512624918863,
        -3.0092571398216106e-07,
        0.0,
        -5.240585326767366e-07,
        -3.3218217248609325e-08,
        -2.6413514614104705,
        0.0,
        2.064512624918818,
        1.647583139700434,
        -4.303309305653747e-07,
        0.0,
        94.407470703125,
        357.09405517578125,
        4.797874498763122e-05,
        1.0
      ],
      "name": "Cube.002"
    },
    {
      "mesh": 3,
      "name": "Cube.002_Gold_0"
    }
  ],
  "scene": 0,
  "scenes": [
    {
      "name": "Sketchfab_Scene",
      "nodes": [
        0
      ]
    }
  ]
}
