{
  "accessors": [
    {
      "bufferView": 2,
      "componentType": 5126,
      "count": 6923,
      "max": [
        1.000000238418579,
        0.27867555618286133,
        0.7892242670059204
      ],
      "min": [
        -1.000000238418579,
        -1.7114851474761963,
        -1.2947503328323364
      ],
      "type": "VEC3"
    },
    {
      "bufferView": 2,
      "byteOffset": 83076,
      "componentType": 5126,
      "count": 6923,
      "max": [
        1.0,
        1.0,
        1.0
      ],
      "min": [
        -1.0,
        -1.0,
        -1.0
      ],
      "type": "VEC3"
    },
    {
      "bufferView": 3,
      "componentType": 5126,
      "count": 6923,
      "max": [
        1.0,
        1.0,
        1.0,
        1.0
      ],
      "min": [
        -1.0,
        -1.0,
        -1.0,
        1.0
      ],
      "type": "VEC4"
    },
    {
      "bufferView": 1,
      "componentType": 5126,
      "count": 6923,
      "max": [
        0.9856922030448914,
        0.9999999403953552
      ],
      "min": [
        -7.135533830471275e-10,
        -1.0098239577871482e-08
      ],
      "type": "VEC2"
    },
    {
      "bufferView": 1,
      "byteOffset": 55384,
      "componentType": 5126,
      "count": 6923,
      "max": [
        0.9856922030448914,
        0.9999999403953552
      ],
      "min": [
        -7.135533830471275e-10,
        -1.0098239577871482e-08
      ],
      "type": "VEC2"
    },
    {
      "bufferView": 1,
      "byteOffset": 110768,
      "componentType": 5126,
      "count": 6923,
      "max": [
        0.9856922030448914,
        0.9999999403953552
      ],
      "min": [
        -7.135533830471275e-10,
        -1.0098239577871482e-08
      ],
      "type": "VEC2"
    },
    {
      "bufferView": 0,
      "componentType": 5125,
      "count": 36864,
      "type": "SCALAR"
    },
    {
      "bufferView": 2,
      "byteOffset": 166152,
      "componentType": 5126,
      "count": 136,
      "max": [
        1.8016834259033203,
        0.08168339729309082,
        0.08168340474367142
      ],
      "min": [
        -0.08168339729309082,
        -1.6316827535629272,
        -0.08168338984251022
      ],
      "type": "VEC3"
    },
    {
      "bufferView": 2,
      "byteOffset": 167784,
      "componentType": 5126,
      "count": 136,
      "max": [
        0.980580747127533,
        0.9805808067321777,
        -0.19611500203609467
      ],
      "min": [
        -0.9805808067321777,
        -0.980580747127533,
        -0.1961173713207245
      ],
      "type": "VEC3"
    },
    {
      "bufferView": 3,
      "byteOffset": 110768,
      "componentType": 5126,
      "count": 136,
      "max": [
        0.503477156162262,
        0.503476083278656,
        0.980580747127533,
        1.0
      ],
      "min": [
        -0.5861648917198181,
        -0.5861678719520569,
        -0.9805806279182434,
        1.0
      ],
      "type": "VEC4"
    },
    {
      "bufferView": 1,
      "byteOffset": 166152,
      "componentType": 5126,
      "count": 136,
      "max": [
        1.0,
        0.564591646194458
      ],
      "min": [
        1.1628478180369939e-09,
        -1.4198639597395868e-08
      ],
      "type": "VEC2"
    },
    {
      "bufferView": 1,
      "byteOffset": 167240,
      "componentType": 5126,
      "count": 136,
      "max": [
        1.0,
        0.564591646194458
      ],
      "min": [
        1.1628478180369939e-09,
        -1.4198639597395868e-08
      ],
      "type": "VEC2"
    },
    {
      "bufferView": 1,
      "byteOffset": 168328,
      "componentType": 5126,
      "count": 136,
      "max": [
        1.0,
        0.564591646194458
      ],
      "min": [
        1.1628478180369939e-09,
        -1.4198639597395868e-08
      ],
      "type": "VEC2"
    },
    {
      "bufferView": 0,
      "byteOffset": 147456,
      "componentType": 5125,
      "count": 384,
      "type": "SCALAR"
    }
  ],
  "asset": {
    "extras": {
      "author": "DeadEndGames (https://sketchfab.com/aPXND4)",
      "license": "CC-BY-4.0 (http://creativecommons.org/licenses/by/4.0/)",
      "source": "https://sketchfab.com/3d-models/sofa-chair-24933d12289846f79c7eb54c4e465176",
      "title": "Sofa Chair"
    },
    "generator": "Sketchfab-15.49.0",
    "version": "2.0"
  },
  "bufferViews": [
    {
      "buffer": 0,
      "byteLength": 148992,
      "name": "floatBufferViews",
      "target": 34963
    },
    {
      "buffer": 0,
      "byteLength": 169416,
      "byteOffset": 148992,
      "byteStride": 8,
      "name": "floatBufferViews",
      "target": 34962
    },
    {
      "buffer": 0,
      "byteLength": 169416,
      "byteOffset": 318408,
      "byteStride": 12,
      "name": "floatBufferViews",
      "target": 34962
    },
    {
      "buffer": 0,
      "byteLength": 112944,
      "byteOffset": 487824,
      "byteStride": 16,
      "name": "floatBufferViews",
      "target": 34962
    }
  ],
  "buffers": [
    {
      "byteLength": 600768,
      "uri": "scene.bin"
    }
  ],
  "images": [
    {
      "uri": "textures/Chair_baseColor.png"
    },
    {
      "uri": "textures/Chair_metallicRoughness.png"
    },
    {
      "uri": "textures/Chair_normal.png"
    },
    {
      "uri": "textures/Legs_baseColor.png"
    },
    {
      "uri": "textures/Legs_normal.png"
    }
  ],
  "materials": [
    {
      "doubleSided": true,
      "name": "Chair",
      "normalTexture": {
        "index": 2
      },
      "pbrMetallicRoughness": {
        "baseColorTexture": {
          "index": 0
        },
        "metallicRoughnessTexture": {
          "index": 1
        }
      }
    },
    {
      "doubleSided": true,
      "name": "Legs",
      "normalTexture": {
        "index": 4
      },
      "pbrMetallicRoughness": {
        "baseColorTexture": {
          "index": 3
        },
        "metallicRoughnessTexture": {
          "index": 1
        }
      }
    }
  ],
  "meshes": [
    {
      "name": "Chair_Chair_0",
      "primitives": [
        {
          "attributes": {
            "NORMAL": 1,
            "POSITION": 0,
            "TANGENT": 2,
            "TEXCOORD_0": 3,
            "TEXCOORD_1": 4,
            "TEXCOORD_2": 5
          },
          "indices": 6,
          "material": 0,
          "mode": 4
        }
      ]
    },
    {
      "name": "Legs_Legs_0",
      "primitives": [
        {
          "attributes": {
            "NORMAL": 8,
            "POSITION": 7,
            "TANGENT": 9,
            "TEXCOORD_0": 10,
            "TEXCOORD_1": 11,
            "TEXCOORD_2": 12
          },
          "indices": 13,
          "material": 1,
          "mode": 4
        }
      ]
    }
  ],
  "nodes": [
    {
      "children": [
        1
      ],
      "matrix": [
        1.0,
        0.0,
        0.0,
        0.0,
        0.0,
        2.220446049250313e-16,
        -1.0,
        0.0,
        0.0,
        1.0,
        2.220446049250313e-16,
        0.0,
        0.0,
        0.0,
        0.0,
        1.0
      ],
      "name": "Sketchfab_model"
    },
    {
      "children": [
        2
      ],
      "matrix": [
        0.009999999776482582,
        0.0,
        0.0,
        0.0,
        0.0,
        0.0,
        0.009999999776482582,
        0.0,
        0.0,
        -0.009999999776482582,
        0.0,
        0.0,
        0.0,
        0.0,
        0.0,
        1.0
      ],
      "name": "d5ca455c21c4407aaebc8f4846544ecb.fbx"
    },
    {
      "children": [
        3,
        5
      ],
      "name": "RootNode"
    },
    {
      "children": [
        4
      ],
      "matrix": [
        100.0,
        0.0,
        0.0,
        0.0,
        0.0,
        -1.629206793918314e-05,
        -99.99999999999868,
        0.0,
        0.0,
        99.99999999999868,
        -1.629206793918314e-05,
        0.0,
        0.0,
        129.47499084472656,
        -91.1639633178711,
        1.0
      ],
      "name": "Chair"
    },
    {
      "mesh": 0,
      "name": "Chair_Chair_0"
    },
    {
      "children": [
        6
      ],
      "matrix": [
        100.0,
        0.0,
        0.0,
        0.0,
        -0.0,
        -1.629206793918314e-05,
        -99.99999999999868,
        0.0,
        0.0,
        99.99999999999868,
        -1.629206793918314e-05,
        0.0,
        -85.85485076904297,
        -7.473599910736084,
        -88.69491577148438,
        1.0
      ],
      "name": "Legs"
    },
    {
      "mesh": 1,
      "name": "Legs_Legs_0"
    }
  ],
  "samplers": [
    {
      "magFilter": 9729,
      "minFilter": 9987,
      "wrapS": 10497,
      "wrapT": 10497
    }
  ],
  "scene": 0,
  "scenes": [
    {
      "name": "Sketchfab_Scene",
      "nodes": [
        0
      ]
    }
  ],
  "textures": [
    {
      "sampler": 0,
      "source": 0
    },
    {
      "sampler": 0,
      "source": 1
    },
    {
      "sampler": 0,
      "source": 2
    },
    {
      "sampler": 0,
      "source": 3
    },
    {
      "sampler": 0,
      "source": 4
    }
  ]
}
