{
  "accessors": [
    {
      "bufferView": 2,
      "componentType": 5126,
      "count": 70,
      "max": [
        0.06305622309446335,
        0.04212835431098938,
        0.1436632126569748
      ],
      "min": [
        -0.06305622309446335,
        -0.027717575430870056,
        -0.1436632126569748
      ],
      "type": "VEC3"
    },
    {
      "bufferView": 2,
      "byteOffset": 840,
      "componentType": 5126,
      "count": 70,
      "max": [
        1.0,
        1.0,
        1.0
      ],
      "min": [
        -1.0,
        0.0,
        -1.0
      ],
      "type": "VEC3"
    },
    {
      "bufferView": 1,
      "componentType": 5126,
      "count": 70,
      "max": [
        0.875,
        1.0
      ],
      "min": [
        0.125,
        0.0
      ],
      "type": "VEC2"
    },
    {
      "bufferView": 0,
      "componentType": 5125,
      "count": 168,
      "type": "SCALAR"
    },
    {
      "bufferView": 2,
      "byteOffset": 1680,
      "componentType": 5126,
      "count": 1170,
      "max": [
        0.07054384052753448,
        0.047670185565948486,
        0.14888764917850494
      ],
      "min": [
        -0.06817889213562012,
        -0.02774651348590851,
        -0.14888764917850494
      ],
      "type": "VEC3"
    },
    {
      "bufferView": 2,
      "byteOffset": 15720,
      "componentType": 5126,
      "count": 1170,
      "max": [
        1.0,
        1.0,
        1.0
      ],
      "min": [
        -1.0,
        -1.0,
        -1.0
      ],
      "type": "VEC3"
    },
    {
      "bufferView": 3,
      "componentType": 5126,
      "count": 1170,
      "max": [
        1.0,
        1.0,
        1.0,
        1.0
      ],
      "min": [
        -1.0,
        -1.0,
        -1.0,
        1.0
      ],
      "type": "VEC4"
    },
    {
      "bufferView": 1,
      "byteOffset": 560,
      "componentType": 5126,
      "count": 1170,
      "max": [
        3.1137139797210693,
        2.5
      ],
      "min": [
        -1.444035291671753,
        -1.6982861757278442
      ],
      "type": "VEC2"
    },
    {
      "bufferView": 1,
      "byteOffset": 9920,
      "componentType": 5126,
      "count": 1170,
      "max": [
        3.1137139797210693,
        2.5
      ],
      "min": [
        -1.444035291671753,
        -1.6982861757278442
      ],
      "type": "VEC2"
    },
    {
      "bufferView": 1,
      "byteOffset": 19280,
      "componentType": 5126,
      "count": 1170,
      "max": [
        3.1137139797210693,
        2.5
      ],
      "min": [
        -1.444035291671753,
        -1.6982861757278442
      ],
      "type": "VEC2"
    },
    {
      "bufferView": 1,
      "byteOffset": 28640,
      "componentType": 5126,
      "count": 1170,
      "max": [
        3.1137139797210693,
        2.5
      ],
      "min": [
        -1.444035291671753,
        -1.6982861757278442
      ],
      "type": "VEC2"
    },
    {
      "bufferView": 0,
      "byteOffset": 672,
      "componentType": 5125,
      "count": 1914,
      "type": "SCALAR"
    },
    {
      "bufferView": 2,
      "byteOffset": 29760,
      "componentType": 5126,
      "count": 96,
      "max": [
        0.06665804982185364,
        -0.025012195110321045,
        0.14728352427482605
      ],
      "min": [
        0.06466932594776154,
        -0.025403637439012527,
        -0.14728352427482605
      ],
      "type": "VEC3"
    },
    {
      "bufferView": 2,
      "byteOffset": 30912,
      "componentType": 5126,
      "count": 96,
      "max": [
        1.0,
        0.9238827228546143,
        0.9238880276679993
      ],
      "min": [
        -1.0,
        -0.9238827228546143,
        -0.9238880276679993
      ],
      "type": "VEC3"
    },
    {
      "bufferView": 1,
      "byteOffset": 38000,
      "componentType": 5126,
      "count": 96,
      "max": [
        0.2029581069946289,
        0.5505659580230713
      ],
      "min": [
        0.17795205116271973,
        0.5369071960449219
      ],
      "type": "VEC2"
    },
    {
      "bufferView": 0,
      "byteOffset": 8328,
      "componentType": 5125,
      "count": 168,
      "type": "SCALAR"
    },
    {
      "bufferView": 2,
      "byteOffset": 32064,
      "componentType": 5126,
      "count": 4229,
      "max": [
        0.08384104818105698,
        0.11073096096515656,
        0.1436632126569748
      ],
      "min": [
        -0.06305622309446335,
        0.007205389440059662,
        -0.1436632126569748
      ],
      "type": "VEC3"
    },
    {
      "bufferView": 2,
      "byteOffset": 82812,
      "componentType": 5126,
      "count": 4229,
      "max": [
        0.8028168678283691,
        1.0,
        0.987704336643219
      ],
      "min": [
        -0.9999898672103882,
        -0.7555076479911804,
        -0.9744455218315125
      ],
      "type": "VEC3"
    },
    {
      "bufferView": 1,
      "byteOffset": 38768,
      "componentType": 5126,
      "count": 4229,
      "max": [
        1.1617677211761475,
        1.0000003576278687
      ],
      "min": [
        0.0,
        0.0
      ],
      "type": "VEC2"
    },
    {
      "bufferView": 0,
      "byteOffset": 9000,
      "componentType": 5125,
      "count": 24582,
      "type": "SCALAR"
    }
  ],
  "asset": {
    "extras": {
      "author": "Veebroush (https://sketchfab.com/veebroush)",
      "license": "SKETCHFAB Standard (https://sketchfab.com/licenses)",
      "source": "https://sketchfab.com/3d-models/paper-tissue-box-c75a979059ff40a59f618c434d35b14b",
      "title": "Paper Tissue Box"
    },
    "generator": "Sketchfab-15.61.0",
    "version": "2.0"
  },
  "bufferViews": [
    {
      "buffer": 0,
      "byteLength": 107328,
      "name": "floatBufferViews",
      "target": 34963
    },
    {
      "buffer": 0,
      "byteLength": 72600,
      "byteOffset": 107328,
      "byteStride": 8,
      "name": "floatBufferViews",
      "target": 34962
    },
    {
      "buffer": 0,
      "byteLength": 133560,
      "byteOffset": 179928,
      "byteStride": 12,
      "name": "floatBufferViews",
      "target": 34962
    },
    {
      "buffer": 0,
      "byteLength": 18720,
      "byteOffset": 313488,
      "byteStride": 16,
      "name": "floatBufferViews",
      "target": 34962
    }
  ],
  "buffers": [
    {
      "byteLength": 332208,
      "uri": "scene.bin"
    }
  ],
  "extensionsRequired": [
    "KHR_materials_pbrSpecularGlossiness"
  ],
  "extensionsUsed": [
    "KHR_materials_pbrSpecularGlossiness"
  ],
  "images": [
    {
      "uri": "textures/Tissue_box_wood_diffuse.jpeg"
    },
    {
      "uri": "textures/Tissue_box_wood_specularGlossiness.png"
    },
    {
      "uri": "textures/Tissue_box_wood_normal.jpeg"
    }
  ],
  "materials": [
    {
      "doubleSided": true,
      "extensions": {
        "KHR_materials_pbrSpecularGlossiness": {
          "diffuseFactor": [
            0.20155499999999998,
            0.5775799999999998,
            1.0,
            1.0
          ],
          "glossinessFactor": 0.7,
          "specularFactor": [
            0.0,
            0.0,
            0.0
          ]
        }
      },
      "name": "Paper_tissue_box"
    },
    {
      "doubleSided": true,
      "extensions": {
        "KHR_materials_pbrSpecularGlossiness": {
          "diffuseFactor": [
            1.0,
            1.0,
            1.0,
            1.0
          ],
          "diffuseTexture": {
            "index": 0
          },
          "glossinessFactor": 1.0,
          "specularFactor": [
            0.0,
            0.0,
            0.0
          ],
          "specularGlossinessTexture": {
            "index": 1,
            "texCoord": 1
          }
        }
      },
      "name": "Tissue_box_wood",
      "normalTexture": {
        "index": 2,
        "scale": 0.5,
        "texCoord": 2
      }
    },
    {
      "doubleSided": true,
      "extensions": {
        "KHR_materials_pbrSpecularGlossiness": {
          "diffuseFactor": [
            0.6,
            0.6,
            0.6,
            1.0
          ],
          "glossinessFactor": 0.5,
          "specularFactor": [
            1.0,
            1.0,
            1.0
          ]
        }
      },
      "name": "Matte_metal"
    },
    {
      "doubleSided": true,
      "extensions": {
        "KHR_materials_pbrSpecularGlossiness": {
          "diffuseFactor": [
            0.307088,
            0.307088,
            0.307088,
            1.0
          ],
          "glossinessFactor": 0.5,
          "specularFactor": [
            0.0,
            0.0,
            0.0
          ]
        }
      },
      "name": "Paper"
    }
  ],
  "meshes": [
    {
      "name": "Object_0",
      "primitives": [
        {
          "attributes": {
            "NORMAL": 1,
            "POSITION": 0,
            "TEXCOORD_0": 2
          },
          "indices": 3,
          "material": 0,
          "mode": 4
        }
      ]
    },
    {
      "name": "Object_1",
      "primitives": [
        {
          "attributes": {
            "NORMAL": 5,
            "POSITION": 4,
            "TANGENT": 6,
            "TEXCOORD_0": 7,
            "TEXCOORD_1": 8,
            "TEXCOORD_2": 9,
            "TEXCOORD_3": 10
          },
          "indices": 11,
          "material": 1,
          "mode": 4
        }
      ]
    },
    {
      "name": "Object_2",
      "primitives": [
        {
          "attributes": {
            "NORMAL": 13,
            "POSITION": 12,
            "TEXCOORD_0": 14
          },
          "indices": 15,
          "material": 2,
          "mode": 4
        }
      ]
    },
    {
      "name": "Object_3",
      "primitives": [
        {
          "attributes": {
            "NORMAL": 17,
            "POSITION": 16,
            "TEXCOORD_0": 18
          },
          "indices": 19,
          "material": 3,
          "mode": 4
        }
      ]
    }
  ],
  "nodes": [
    {
      "children": [
        1
      ],
      "matrix": [
        0.9109509587287903,
        0.0,
        0.0,
        0.0,
        0.0,
        2.0227174573701274e-16,
        -0.9109509587287903,
        0.0,
        0.0,
        0.9109509587287903,
        2.0227174573701274e-16,
        0.0,
        0.0,
        0.0,
        0.0,
        1.0
      ],
      "name": "Sketchfab_model"
    },
    {
      "children": [
        2
      ],
      "name": "root"
    },
    {
      "children": [
        3
      ],
      "matrix": [
        1.0,
        0.0,
        0.0,
        0.0,
        0.0,
        2.220446049250313e-16,
        1.0,
        0.0,
        0.0,
        -1.0,
        2.220446049250313e-16,
        0.0,
        0.0,
        0.0,
        0.0,
        1.0
      ],
      "name": "GLTF_SceneRootNode"
    },
    {
      "children": [
        4,
        5,
        6,
        7
      ],
      "matrix": [
        0.9879157027117836,
        0.0,
        -0.1549921428185399,
        0.0,
        0.0,
        1.0,
        0.0,
        0.0,
        0.1549921428185399,
        0.0,
        0.9879157027117836,
        0.0,
        0.0,
        0.0,
        0.0,
        1.0
      ],
      "name": "Paper_tissue_box_2"
    },
    {
      "mesh": 0,
      "name": "Object_4"
    },
    {
      "mesh": 1,
      "name": "Object_5"
    },
    {
      "mesh": 2,
      "name": "Object_6"
    },
    {
      "mesh": 3,
      "name": "Object_7"
    }
  ],
  "samplers": [
    {
      "magFilter": 9729,
      "minFilter": 9987,
      "wrapS": 10497,
      "wrapT": 10497
    }
  ],
  "scene": 0,
  "scenes": [
    {
      "name": "Sketchfab_Scene",
      "nodes": [
        0
      ]
    }
  ],
  "textures": [
    {
      "sampler": 0,
      "source": 0
    },
    {
      "sampler": 0,
      "source": 1
    },
    {
      "sampler": 0,
      "source": 2
    }
  ]
}
